<svg width="512" height="512" viewBox="0 0 512 512" fill="none" xmlns="http://www.w3.org/2000/svg" role="img" aria-label="Lupin Leads">
  <rect width="512" height="512" rx="96" fill="#0a0a0a"/>
  <g transform="translate(224 200) scale(4)">
    <path d="M32 4L8 16V36C8 50 18 62 32 68C46 62 56 50 56 36V16L32 4Z" stroke="#52b788" stroke-width="1.4" fill="none"/>
    <path d="M32 20C26 20 22 24 20 30C18 36 20 42 26 45C28 46 30 47 32 47C34 47 36 46 38 45C44 42 46 36 44 30C42 24 38 20 32 20Z" fill="#52b788" fill-opacity="0.15" stroke="#52b788" stroke-width="1"/>
    <circle cx="27" cy="30" r="1.5" fill="#52b788"/>
    <circle cx="37" cy="30" r="1.5" fill="#52b788"/>
  </g>
</svg>
