<svg width="280" height="72" viewBox="0 0 280 72" fill="none" xmlns="http://www.w3.org/2000/svg" role="img" aria-label="Lupin Leads">
  <defs>
    <linearGradient id="crest-grad" x1="32" y1="4" x2="32" y2="68" gradientUnits="userSpaceOnUse">
      <stop stop-color="#52b788" stop-opacity="0.6"/>
      <stop offset="1" stop-color="#c0c0c0" stop-opacity="0.2"/>
    </linearGradient>
  </defs>
  <g transform="translate(0 0)">
    <path d="M32 4L8 16V36C8 50 18 62 32 68C46 62 56 50 56 36V16L32 4Z" stroke="url(#crest-grad)" stroke-width="1.4" fill="none"/>
    <path d="M32 8L12 18V36C12 48 20 58 32 62C44 58 52 48 52 36V18L32 8Z" stroke="#52b788" stroke-width="0.6" stroke-opacity="0.35" fill="none"/>
    <path d="M32 20C26 20 22 24 20 30C18 36 20 42 26 45C28 46 30 47 32 47C34 47 36 46 38 45C44 42 46 36 44 30C42 24 38 20 32 20Z" fill="#52b788" fill-opacity="0.2" stroke="#52b788" stroke-width="1" stroke-opacity="0.9"/>
    <path d="M24 28L26 20L30 26" stroke="#52b788" stroke-width="0.8" stroke-opacity="0.7" fill="none"/>
    <path d="M40 28L38 20L34 26" stroke="#52b788" stroke-width="0.8" stroke-opacity="0.7" fill="none"/>
    <circle cx="27" cy="30" r="1.5" fill="#52b788" fill-opacity="0.9"/>
    <circle cx="37" cy="30" r="1.5" fill="#52b788" fill-opacity="0.9"/>
  </g>
  <text x="76" y="44" fill="#f5f5f5" font-family="system-ui, -apple-system, Segoe UI, sans-serif" font-size="22" font-weight="600" letter-spacing="0.12em">LUPIN LEADS</text>
</svg>
